# xmcd
#
# Track frame offsets:
#	150
#	17690
#	41120
#	67070
#	96688
#	116850
#	135658
#	163775
#	186415
#	210165
#
# Disc length: 3044 seconds
#
# Revision: 1
# Processed by: cddbd v1.5.2PL0 Copyright (c) Steve Scherf et al.
# Submitted via: EZCDAudioConverter 8.0.2.1
#
DISCID=970be20a
DTITLE=Various Artist - Những Tuyệt Tác Phẩm Trong Phim "Người Cô Đơn"
DYEAR=1990
DGENRE=Contemporary Pop
TTITLE0=Elvis Phương - Người Cô Đơn
TTITLE1=Lệ Hằng - Lệ đá
TTITLE2=Tuấn Anh - Loan mắt nhung
TTITLE3=Lệ Hằng - Hát cho một người nằm xuống
TTITLE4=Elvis Phương - Tình bơ vơ
TTITLE5=Lệ Hằng - Người tình không chân dung
TTITLE6=Elvis Phương - Yêu em vào cõi chết
TTITLE7=Như Mai - Cuộc tình xưa
TTITLE8=Tuấn Anh - Nghẹn ngào
TTITLE9=Hằng Nga - Bão tình
EXTD=
EXTT0=
EXTT1=
EXTT2=
EXTT3=
EXTT4=
EXTT5=
EXTT6=
EXTT7=
EXTT8=
EXTT9=
PLAYORDER=
